<svg width="880" height="165" viewBox="0 0 880 165" fill="none" xmlns="http://www.w3.org/2000/svg">
<path d="M115.555 138.771C71.6103 152.435 0.634332 138.47 0.00391326 77.6167C-0.626506 16.7622 75.1225 53.0124 75.1225 53.0124L115.555 138.771Z" fill="#FFC250"/>
<path d="M21.3698 43.4717C52.0394 38.2164 75.3323 78.857 101.103 121.251C126.874 163.645 193.981 180.449 236.86 144.798C279.738 109.146 297.886 46.7068 245.238 9.46276C192.59 -27.7813 159.725 56.7745 114.402 59.0987C69.0787 61.423 68.7477 27.7326 21.3698 43.4717Z" fill="#FFD064"/>
<circle cx="240.796" cy="79.5088" r="13.46" fill="#FFE19D"/>
<circle cx="214.998" cy="89.6057" r="10.095" fill="#FFE19D"/>
<circle cx="232.945" cy="103.063" r="7.85167" fill="#FFE19D"/>
<path d="M346.257 138.524V23.5896H392.395C404.326 23.5896 413.412 26.3809 419.651 31.9635C426 37.4365 429.174 44.4968 429.174 53.1443C429.174 60.3688 427.204 66.1702 423.263 70.5487C419.432 74.8177 414.725 77.7184 409.143 79.2509C415.71 80.5645 421.129 83.8483 425.398 89.1025C429.667 94.2472 431.801 100.268 431.801 107.164C431.801 116.249 428.517 123.747 421.95 129.658C415.382 135.569 406.078 138.524 394.037 138.524H346.257ZM367.274 71.8622H389.275C395.186 71.8622 399.729 70.494 402.903 67.7574C406.078 65.0209 407.665 61.135 407.665 56.0998C407.665 51.2835 406.078 47.507 402.903 44.7705C399.838 41.9245 395.186 40.5015 388.947 40.5015H367.274V71.8622ZM367.274 121.448H390.753C396.992 121.448 401.809 120.025 405.202 117.179C408.705 114.224 410.456 110.119 410.456 104.865C410.456 99.5013 408.65 95.287 405.038 92.2221C401.426 89.1572 396.555 87.6247 390.425 87.6247H367.274V121.448ZM470.856 140.495C463.85 140.495 458.104 139.4 453.616 137.211C449.128 134.912 445.789 131.902 443.6 128.18C441.411 124.459 440.316 120.354 440.316 115.866C440.316 108.313 443.272 102.183 449.183 97.4763C455.094 92.7694 463.96 90.416 475.782 90.416H496.47V88.4457C496.47 82.8631 494.883 78.7583 491.708 76.1313C488.534 73.5042 484.593 72.1906 479.887 72.1906C475.618 72.1906 471.896 73.2305 468.722 75.3103C465.547 77.2806 463.577 80.2361 462.811 84.1767H442.287C442.834 78.2658 444.804 73.1211 448.197 68.7426C451.7 64.3641 456.188 61.0255 461.661 58.7268C467.134 56.3187 473.264 55.1146 480.051 55.1146C491.654 55.1146 500.794 58.0153 507.471 63.8168C514.148 69.6183 517.487 77.8279 517.487 88.4457V138.524H499.59L497.619 125.389C495.211 129.767 491.818 133.38 487.439 136.226C483.17 139.072 477.643 140.495 470.856 140.495ZM475.618 124.075C481.638 124.075 486.29 122.105 489.574 118.165C492.967 114.224 495.102 109.353 495.977 103.551H478.08C472.498 103.551 468.503 104.591 466.094 106.671C463.686 108.641 462.482 111.104 462.482 114.06C462.482 117.234 463.686 119.697 466.094 121.448C468.503 123.2 471.677 124.075 475.618 124.075ZM566.139 138.524C557.601 138.524 550.76 136.445 545.615 132.285C540.47 128.126 537.898 120.737 537.898 110.119V74.6535H523.941V57.0849H537.898L540.361 35.2473H558.915V57.0849H580.916V74.6535H558.915V110.283C558.915 114.224 559.735 116.96 561.377 118.493C563.129 119.916 566.084 120.627 570.244 120.627H580.424V138.524H566.139ZM620.47 140.495C613.464 140.495 607.718 139.4 603.23 137.211C598.742 134.912 595.403 131.902 593.214 128.18C591.025 124.459 589.93 120.354 589.93 115.866C589.93 108.313 592.886 102.183 598.797 97.4763C604.708 92.7694 613.574 90.416 625.396 90.416H646.084V88.4457C646.084 82.8631 644.497 78.7583 641.322 76.1313C638.148 73.5042 634.207 72.1906 629.501 72.1906C625.232 72.1906 621.51 73.2305 618.336 75.3103C615.161 77.2806 613.191 80.2361 612.425 84.1767H591.901C592.448 78.2658 594.418 73.1211 597.811 68.7426C601.314 64.3641 605.802 61.0255 611.275 58.7268C616.748 56.3187 622.878 55.1146 629.665 55.1146C641.268 55.1146 650.408 58.0153 657.085 63.8168C663.762 69.6183 667.101 77.8279 667.101 88.4457V138.524H649.204L647.233 125.389C644.825 129.767 641.432 133.38 637.053 136.226C632.784 139.072 627.257 140.495 620.47 140.495ZM625.232 124.075C631.252 124.075 635.904 122.105 639.188 118.165C642.581 114.224 644.716 109.353 645.591 103.551H627.695C622.112 103.551 618.117 104.591 615.708 106.671C613.3 108.641 612.096 111.104 612.096 114.06C612.096 117.234 613.3 119.697 615.708 121.448C618.117 123.2 621.291 124.075 625.232 124.075ZM728.861 140.495C722.732 140.495 717.368 139.345 712.771 137.047C708.173 134.748 704.452 131.519 701.606 127.359L699.307 138.524H680.589V20.3058H701.606V68.7426C704.233 65.1304 707.681 61.956 711.95 59.2194C716.328 56.4829 721.965 55.1146 728.861 55.1146C736.524 55.1146 743.365 56.9755 749.386 60.6972C755.406 64.4189 760.168 69.5088 763.67 75.9671C767.173 82.4253 768.924 89.7592 768.924 97.9689C768.924 106.178 767.173 113.512 763.67 119.971C760.168 126.319 755.406 131.355 749.386 135.076C743.365 138.689 736.524 140.495 728.861 140.495ZM724.428 122.105C731.105 122.105 736.633 119.861 741.012 115.373C745.39 110.885 747.579 105.084 747.579 97.9689C747.579 90.8539 745.39 84.9977 741.012 80.4003C736.633 75.8029 731.105 73.5042 724.428 73.5042C717.642 73.5042 712.059 75.8029 707.681 80.4003C703.412 84.8882 701.277 90.6897 701.277 97.8047C701.277 104.92 703.412 110.776 707.681 115.373C712.059 119.861 717.642 122.105 724.428 122.105ZM792.46 44.4421C788.629 44.4421 785.455 43.2927 782.937 40.9941C780.529 38.6954 779.325 35.7946 779.325 32.2919C779.325 28.7891 780.529 25.9431 782.937 23.7538C785.455 21.4551 788.629 20.3058 792.46 20.3058C796.292 20.3058 799.411 21.4551 801.819 23.7538C804.337 25.9431 805.596 28.7891 805.596 32.2919C805.596 35.7946 804.337 38.6954 801.819 40.9941C799.411 43.2927 796.292 44.4421 792.46 44.4421ZM781.952 138.524V57.0849H802.969V138.524H781.952ZM854.624 138.524C846.086 138.524 839.245 136.445 834.1 132.285C828.955 128.126 826.383 120.737 826.383 110.119V74.6535H812.426V57.0849H826.383L828.846 35.2473H847.399V57.0849H869.401V74.6535H847.399V110.283C847.399 114.224 848.22 116.96 849.862 118.493C851.614 119.916 854.569 120.627 858.729 120.627H868.909V138.524H854.624Z" fill="#F7931A"/>
</svg>
